<?xml version="1.0" standalone="no"?>
<!DOCTYPE svg PUBLIC "-//W3C//DTD SVG 20010904//EN"
 "http://www.w3.org/TR/2001/REC-SVG-20010904/DTD/svg10.dtd">
<svg version="1.0" xmlns="http://www.w3.org/2000/svg"
 width="235.000000pt" height="235.000000pt" viewBox="0 0 235.000000 235.000000"
 preserveAspectRatio="xMidYMid meet">
<metadata>
Created by potrace 1.14, written by Peter Selinger 2001-2017
</metadata>
<g transform="translate(0.000000,235.000000) scale(0.100000,-0.100000)"
fill="#000000" stroke="none">
<path d="M783 2050 c-113 -69 -62 -250 70 -250 100 0 162 103 118 194 -36 73
-120 98 -188 56z"/>
<path d="M1363 1805 c1 -140 1 -255 -1 -255 -2 0 -24 17 -50 39 -75 62 -147
89 -252 95 -354 17 -600 -334 -471 -674 47 -124 126 -213 236 -265 83 -39 140
-52 217 -49 112 6 192 38 270 111 26 26 50 44 52 42 2 -2 16 -36 31 -76 27
-69 29 -72 64 -75 20 -2 55 -1 79 1 l42 3 0 678 0 678 -110 1 -109 1 2 -255z
m-148 -342 c54 -28 94 -69 119 -123 17 -36 21 -64 21 -145 0 -92 -2 -104 -30
-153 -55 -101 -132 -145 -250 -146 -95 0 -148 23 -208 87 -55 61 -76 125 -73
222 5 137 63 220 191 272 46 19 181 11 230 -14z"/>
<path d="M683 529 l-72 -61 16 -27 c58 -93 198 -192 328 -232 112 -35 317 -32
422 5 60 21 143 65 188 99 71 54 150 149 133 161 -1 2 -34 28 -71 60 l-69 57
-30 -45 c-70 -106 -224 -178 -378 -177 -89 1 -135 13 -223 59 -67 35 -157 119
-157 148 0 23 -11 17 -87 -47z"/>
</g>
</svg>
