<?xml version="1.0"?>
<svg version="1.1" xmlns="http://www.w3.org/2000/svg" width="276px" height="128px" style=""><path fill="#ffc23d" d="M19.19140625,56.83203125q0-1.3671875,0.46875-1.8359375t1.30859375-0.46875q0.234375,0,0.498046875,0.0390625t0.498046875,0.1171875q1.30859375-0.25390625,2.48046875-0.25390625q1.89453125,0,3.4375,0.6640625q2.48046875,1.0546875,4.1015625,3.125t2.3828125,4.86328125t0.76171875,5.72265625q0,1.640625-0.224609375,3.41796875t-0.869140625,3.30078125q-0.56640625,1.3671875-1.5625,2.861328125t-2.255859375,2.83203125t-2.71484375,2.34375t-2.939453125,1.357421875l0,0.15625q0,0.390625-0.205078125,0.634765625t-0.498046875,0.37109375t-0.673828125,0.166015625t-0.712890625,0.0390625q-0.1953125,0-0.556640625-0.0390625t-0.703125-0.146484375t-0.576171875-0.283203125t-0.234375-0.48828125q0-3.5546875-0.185546875-7.119140625t-0.419921875-7.12890625t-0.419921875-7.119140625t-0.185546875-7.12890625z M22.8828125,55.8359375q0.1953125,1.875,0.25390625,3.740234375t0.17578125,3.740234375q0.3125,4.84375,0.72265625,9.638671875t0.48828125,9.638671875q1.875-1.23046875,3.212890625-2.8125t2.197265625-3.4375t1.259765625-3.896484375t0.400390625-4.208984375q0-1.5625-0.2734375-3.4375t-0.9375-3.61328125t-1.787109375-3.14453125t-2.802734375-2.01171875q-0.3515625-0.1171875-0.849609375-0.1953125t-1.591796875-0.078125q-0.1171875,0-0.234375,0.0390625t-0.234375,0.0390625z M39.1068359375,76.71484375q0-1.328125,0.361328125-2.55859375t1.083984375-2.197265625t1.806640625-1.54296875t2.509765625-0.576171875q0.87890625,0,1.943359375,0.263671875t2.001953125,0.78125t1.5625,1.318359375t0.625,1.8359375q0,0.48828125-0.166015625,0.7421875t-0.673828125,0.25390625l-0.21484375-0.0390625q0.56640625,1.5234375,0.9765625,3.125t0.80078125,3.203125q0.15625,0.3125,0.234375,0.556640625t0.078125,0.478515625q0,0.3125-0.17578125,0.517578125t-0.458984375,0.302734375t-0.5859375,0.13671875t-0.537109375,0.0390625q-0.83984375,0-1.259765625-0.29296875t-0.60546875-0.80078125t-0.224609375-1.142578125t-0.15625-1.279296875q-0.234375,0.76171875-0.615234375,1.484375t-0.8984375,1.298828125t-1.220703125,0.91796875t-1.58203125,0.341796875q-1.2890625,0-2.16796875-0.7421875t-1.416015625-1.826171875t-0.78125-2.314453125t-0.244140625-2.28515625z M41.8802734375,76.44140625q0,0.72265625,0.09765625,1.5234375t0.322265625,1.58203125t0.576171875,1.474609375t0.87890625,1.220703125q0.95703125-1.03515625,1.416015625-2.51953125t0.8203125-2.861328125t0.8203125-2.36328125t1.416015625-0.986328125q0.60546875,0,1.015625,0.21484375q-0.1953125-0.48828125-0.64453125-0.947265625t-1.005859375-0.83984375t-1.15234375-0.625t-1.123046875-0.244140625q-0.15625,0-0.361328125,0.048828125t-0.322265625,0.009765625q-0.80078125,0.234375-1.318359375,0.810546875t-0.83984375,1.357421875t-0.458984375,1.6015625t-0.13671875,1.54296875z M55.233203125,64.3125q0-0.2734375,0.5859375-0.46875t1.328125-0.322265625t1.435546875-0.185546875t0.947265625-0.09765625q0-0.52734375,0.0390625-1.064453125t0.21484375-0.95703125t0.556640625-0.673828125t1.064453125-0.25390625q0.56640625,0,0.859375,0.13671875t0.625,0.56640625q0.078125,0.234375,0.078125,0.44921875l0,0.654296875t-0.0390625,0.673828125q0.72265625-0.078125,1.435546875-0.185546875t1.435546875-0.107421875q0.52734375,0,0.72265625,0.01953125t0.390625,0.46875q0.15625,0.44921875-0.380859375,0.68359375t-1.2890625,0.3515625t-1.494140625,0.17578125t-0.8984375,0.05859375q-0.234375,3.359375-0.478515625,6.66015625t-0.244140625,6.69921875q0,1.5234375,0.09765625,3.14453125t0.546875,3.06640625q0.1171875,0.44921875,0.390625,0.83984375t0.2734375,0.83984375q0,0.2734375-0.21484375,0.4296875t-0.517578125,0.263671875t-0.60546875,0.126953125t-0.498046875,0.01953125q-1.23046875,0-1.875-0.91796875t-0.927734375-2.197265625t-0.302734375-2.626953125t-0.01953125-2.1875q0-1.71875,0.068359375-3.515625t0.166015625-3.5546875t0.2734375-3.4375t0.41015625-3.125q-0.68359375,0.078125-1.337890625,0.17578125t-1.337890625,0.09765625q-0.15625,0-0.419921875-0.01953125t-0.498046875-0.09765625t-0.400390625-0.21484375t-0.166015625-0.390625z M70.1681640625,76.24609375q0-1.796875,0.419921875-3.525390625t0.712890625-3.447265625q0.078125-0.44921875,0.615234375-0.556640625t0.908203125-0.107421875q0.64453125,0,1.03515625,0.1953125q0.15625,0.078125,0.29296875,0.17578125t0.13671875,0.25390625q0,1.6796875-0.400390625,3.28125t-0.400390625,3.3984375q0,0.60546875,0.087890625,1.142578125t0.166015625,1.064453125l0.1171875,0.56640625q0,0.15625,0.01953125,0.2734375t0.05859375,0.2734375q0,0.3515625-0.498046875,0.478515625t-0.869140625,0.126953125q-0.56640625,0-1.044921875-0.224609375t-0.751953125-0.771484375l-0.2734375-0.56640625q-0.234375-0.44921875-0.234375-1.005859375t-0.09765625-1.025390625z M71.4181640625,64.48828125l0-0.37109375q0-0.91796875,0.458984375-1.640625t1.376953125-0.72265625q0.1171875,0,0.224609375,0.01953125t0.224609375,0.01953125q0.234375,0.0390625,0.615234375,0.185546875t0.380859375,0.458984375l0,0.0390625q-0.078125,0.15625-0.09765625,0.322265625t-0.09765625,0.283203125l0.0390625-0.0390625q-0.234375,0.60546875-0.380859375,0.9765625t-0.322265625,0.595703125t-0.439453125,0.322265625t-0.751953125,0.09765625q-0.078125,0-0.2734375-0.01953125t-0.419921875-0.078125t-0.380859375-0.15625t-0.15625-0.29296875z M78.71640625,76.8125l0-0.56640625q0-0.703125,0.0390625-1.328125q0.0390625-0.87890625,0.0390625-1.4453125q0-0.3125,0.0390625-0.712890625t0.1953125-0.634765625q0.1953125-0.1953125,0.458984375-0.400390625t0.576171875-0.205078125q0.99609375,0,1.5625,0.224609375t0.60546875,0.927734375l0.078125,0.60546875q0.3515625-0.83984375,0.9375-2.080078125t1.357421875-2.36328125t1.73828125-1.9140625t2.041015625-0.791015625q0.99609375,0,1.640625,0.9375t1.025390625,2.392578125t0.537109375,3.2421875t0.21484375,3.505859375t0.078125,3.134765625t0.13671875,2.138671875q0.078125,0.60546875,0.263671875,1.279296875t0.185546875,1.240234375q0,0.15625-0.224609375,0.302734375t-0.478515625,0.244140625t-0.517578125,0.15625t-0.380859375,0.05859375q-0.76171875,0-1.083984375-1.142578125t-0.400390625-2.861328125t-0.078125-3.720703125t-0.13671875-3.720703125t-0.556640625-2.861328125t-1.337890625-1.181640625q-0.83984375,0-1.73828125,1.083984375t-1.54296875,2.880859375q-0.625,1.796875-0.859375,4.08203125q-0.078125,0.72265625-0.078125,1.4453125q0,1.58203125,0.33203125,3.1640625q0.0390625,0.2734375-0.224609375,0.41015625t-0.654296875,0.21484375t-0.791015625,0.09765625t-0.615234375,0.01953125q-0.76171875,0-1.220703125-0.537109375t-0.712890625-1.376953125t-0.341796875-1.884765625t-0.107421875-2.060546875z M96.4638671875,76.03125q0-1.07421875,0.205078125-2.294921875t0.703125-2.236328125t1.376953125-1.6796875t2.24609375-0.6640625q0.91796875,0,1.77734375,0.302734375t1.62109375,0.830078125q0.234375-0.390625,0.7421875-0.478515625t0.8984375-0.087890625q0.15625,0,0.439453125,0.01953125t0.556640625,0.1171875t0.478515625,0.234375t0.244140625,0.390625q0.15625,1.3671875,0.21484375,2.724609375t0.17578125,2.705078125q0.1953125,2.51953125,0.60546875,4.98046875t0.41015625,4.98046875q0,1.19140625-0.107421875,2.578125t-0.56640625,2.568359375t-1.337890625,1.962890625t-2.44140625,0.78125q-1.40625,0-2.158203125-0.498046875t-1.357421875-1.669921875q0.0390625-0.390625,0.498046875-0.517578125t0.791015625-0.126953125q0.3125,0,0.634765625,0.05859375t0.517578125,0.1953125l0.48828125,0.3125q0.72265625-1.484375,0.87890625-3.2421875t0.15625-3.3984375q0-1.3671875-0.13671875-2.705078125t-0.2734375-2.685546875q-1.3671875,2.48046875-4.16015625,2.48046875q-1.2890625,0-2.099609375-0.546875t-1.25-1.38671875t-0.60546875-1.89453125t-0.166015625-2.109375z M98.8662109375,76.20703125q0,0.48828125,0.0390625,1.259765625t0.205078125,1.513671875t0.478515625,1.279296875t0.87890625,0.537109375q1.07421875,0,1.69921875-0.83984375t0.986328125-2.001953125t0.576171875-2.40234375t0.546875-2.041015625q-0.0390625-0.2734375-0.0390625-0.537109375l0-0.537109375q-0.44921875-0.83984375-1.30859375-1.455078125t-1.77734375-0.830078125q-0.1171875-0.01953125-0.21484375-0.01953125q-0.546875,0-0.8984375,0.64453125q-0.44921875,0.78125-0.703125,1.865234375t-0.361328125,2.138671875t-0.107421875,1.42578125z M113.195703125,67.359375q0-1.2890625,0.107421875-2.822265625t0.380859375-3.076171875t0.8203125-2.978515625t1.40625-2.55859375t2.099609375-1.787109375t2.958984375-0.6640625q1.3671875,0,2.51953125,0.52734375t2.01171875,1.42578125t1.337890625,2.099609375t0.478515625,2.509765625q0,0.3515625-0.478515625,0.439453125t-0.673828125,0.087890625q-0.3515625,0-0.673828125-0.05859375t-0.478515625-0.46875q-0.2734375-0.76171875-0.576171875-1.6015625t-0.7421875-1.533203125t-1.083984375-1.142578125q-0.5859375-0.390625-1.484375-0.390625l-0.15625,0q-1.640625,0.0390625-2.44140625,1.171875t-1.103515625,2.75390625t-0.302734375,3.4375l0,3.22265625q0,0.80078125,0.05859375,2.32421875t0.283203125,3.3203125t0.5859375,3.662109375t0.9765625,3.3984375t1.474609375,2.5t2.0703125,0.966796875q1.07421875,0,1.875-0.7421875t1.376953125-1.904296875t0.9765625-2.59765625t0.6640625-2.880859375t0.400390625-2.685546875t0.21484375-2.041015625q-0.21484375-0.01953125-0.41015625-0.01953125q-0.91796875,0-1.796875,0.29296875q-1.11328125,0.33203125-2.2265625,0.33203125q-0.15625,0-0.419921875-0.01953125t-0.498046875-0.09765625t-0.419921875-0.224609375t-0.185546875-0.380859375q0-0.44921875,0.986328125-0.76171875t2.24609375-0.537109375t2.431640625-0.322265625t1.54296875-0.09765625q0.1953125,0,0.556640625,0.0390625t0.72265625,0.13671875t0.615234375,0.283203125t0.25390625,0.458984375q0,0.234375-0.17578125,0.419921875t-0.439453125,0.283203125t-0.537109375,0.13671875t-0.4296875,0.0390625q0.01953125,0.44921875,0.01953125,0.91796875q0,1.0546875-0.05859375,2.24609375q-0.09765625,1.71875-0.390625,3.4375t-0.8984375,3.33984375t-1.54296875,2.861328125t-2.314453125,2.001953125t-3.271484375,0.76171875q-2.0703125,0-3.49609375-0.87890625t-2.32421875-2.34375t-1.396484375-3.3203125t-0.712890625-3.798828125t-0.263671875-3.779296875t-0.048828125-3.3203125z M134.6736328125,74.99609375q0-0.390625,0.087890625-1.03515625t0.205078125-1.279296875t0.2734375-1.181640625t0.37109375-0.703125q0.15625-0.15625,0.537109375-0.3125t0.80078125-0.224609375t0.78125,0.05859375t0.439453125,0.517578125q-0.2734375,0.3515625-0.498046875,1.201171875t-0.341796875,1.884765625q-0.09765625,0.87890625-0.09765625,1.81640625l0,0.33203125q0.01953125,1.09375,0.1953125,2.01171875t0.537109375,1.513671875t1.005859375,0.595703125q1.3671875,0,2.5-1.259765625t2.01171875-3.076171875t1.54296875-3.857421875t1.1328125-3.564453125q0.1171875-0.44921875,0.556640625-0.60546875t0.947265625-0.107421875t0.908203125,0.244140625t0.478515625,0.46875q-0.390625,3.28125-0.615234375,6.5625t-0.224609375,6.6015625q0,0.64453125,0.05859375,1.181640625t-0.05859375,0.91796875t-0.517578125,0.60546875t-1.279296875,0.224609375q-0.1953125,0-0.498046875-0.0390625t-0.625-0.126953125t-0.546875-0.263671875t-0.224609375-0.41015625q0-1.4453125,0.107421875-2.96875t0.302734375-2.94921875q-0.52734375,0.76171875-1.162109375,1.513671875t-1.396484375,1.357421875t-1.640625,0.966796875t-1.89453125,0.361328125q-1.4453125,0-2.275390625-0.68359375t-1.25-1.708984375t-0.52734375-2.236328125t-0.107421875-2.34375z M153.04609375,76.24609375q0-1.796875,0.419921875-3.525390625t0.712890625-3.447265625q0.078125-0.44921875,0.615234375-0.556640625t0.908203125-0.107421875q0.64453125,0,1.03515625,0.1953125q0.15625,0.078125,0.29296875,0.17578125t0.13671875,0.25390625q0,1.6796875-0.400390625,3.28125t-0.400390625,3.3984375q0,0.60546875,0.087890625,1.142578125t0.166015625,1.064453125l0.1171875,0.56640625q0,0.15625,0.01953125,0.2734375t0.05859375,0.2734375q0,0.3515625-0.498046875,0.478515625t-0.869140625,0.126953125q-0.56640625,0-1.044921875-0.224609375t-0.751953125-0.771484375l-0.2734375-0.56640625q-0.234375-0.44921875-0.234375-1.005859375t-0.09765625-1.025390625z M154.29609375,64.48828125l0-0.37109375q0-0.91796875,0.458984375-1.640625t1.376953125-0.72265625q0.1171875,0,0.224609375,0.01953125t0.224609375,0.01953125q0.234375,0.0390625,0.615234375,0.185546875t0.380859375,0.458984375l0,0.0390625q-0.078125,0.15625-0.09765625,0.322265625t-0.09765625,0.283203125l0.0390625-0.0390625q-0.234375,0.60546875-0.380859375,0.9765625t-0.322265625,0.595703125t-0.439453125,0.322265625t-0.751953125,0.09765625q-0.078125,0-0.2734375-0.01953125t-0.419921875-0.078125t-0.380859375-0.15625t-0.15625-0.29296875z M161.5748046875,76.48046875q0-1.5234375,0.322265625-2.763671875t1.025390625-2.099609375t1.845703125-1.337890625t2.783203125-0.478515625q0.91796875,0,1.875,0.244140625t1.640625,0.908203125q0-0.390625,0.078125-1.611328125t0.1953125-2.841796875t0.244140625-3.3984375t0.224609375-3.30078125t0.17578125-2.55859375t0.1171875-1.171875q0.1953125-0.56640625,0.72265625-0.673828125t0.99609375-0.107421875q1.23046875,0,1.513671875,0.390625t0.283203125,1.5625q0,4.27734375-0.380859375,8.515625t-0.380859375,8.515625q0,2.75390625,0.107421875,5.537109375t0.771484375,5.478515625l0.21484375,0.1953125l0.1171875,0.3515625l-0.29296875,0.44921875q-0.7421875,0.46875-1.71875,0.46875l-0.078125,0q-0.99609375,0-1.8359375-0.46875q-0.3125-0.1953125-0.517578125-1.162109375t-0.322265625-2.12890625t-0.17578125-2.236328125t-0.09765625-1.5234375q-0.68359375,1.5625-1.865234375,2.685546875t-2.978515625,1.123046875q-1.40625,0-2.3046875-0.60546875t-1.396484375-1.54296875t-0.703125-2.099609375t-0.205078125-2.314453125z M163.9380859375,76.59765625q0,0.44921875,0.107421875,1.328125t0.341796875,1.7578125t0.654296875,1.5625t1.103515625,0.68359375q0.91796875-0.44921875,1.66015625-1.494140625t1.279296875-2.3046875t0.83984375-2.51953125t0.302734375-2.177734375q0-1.15234375-0.83984375-1.9140625t-2.01171875-0.76171875q-0.3515625,0-0.712890625,0.13671875t-0.673828125,0.3125q-0.72265625,0.68359375-1.123046875,1.240234375t-0.60546875,1.15234375t-0.263671875,1.318359375t-0.05859375,1.6796875z M180.064453125,77.515625q0-1.3671875,0.302734375-3.22265625t1.025390625-3.515625t1.904296875-2.822265625t2.978515625-1.162109375q1.6796875,0,2.51953125,0.966796875t0.83984375,2.607421875q0,1.07421875-0.400390625,2.353515625t-1.142578125,2.421875t-1.7578125,1.904296875t-2.265625,0.76171875l-0.5078125-0.0390625q0,0.52734375,0.15625,1.416015625t0.458984375,1.767578125t0.78125,1.54296875t1.162109375,0.6640625q0.99609375,0,1.9140625-0.80078125t1.73828125-1.77734375t1.5234375-1.77734375t1.2890625-0.80078125q0.3125,0,0.64453125,0.09765625t0.37109375,0.546875q0,0.2734375-0.146484375,0.44921875t-0.263671875,0.390625q-0.60546875,1.03515625-1.318359375,1.97265625t-1.611328125,1.69921875t-1.962890625,1.201171875t-2.353515625,0.439453125q-1.6796875,0-2.79296875-0.595703125t-1.796875-1.6015625t-0.986328125-2.32421875t-0.302734375-2.763671875z M183.560546875,76.03125l0.546875,0.48828125q0.390625,0.3515625,0.78125,0.15625t0.703125-0.712890625t0.576171875-1.279296875t0.46875-1.5625t0.302734375-1.5625t0.09765625-1.26953125l0-0.6640625t-0.05859375-0.703125t-0.205078125-0.556640625t-0.458984375-0.283203125q-0.09765625-0.01953125-0.17578125-0.01953125q-0.6640625,0-1.1328125,0.83984375q-0.5078125,0.9375-0.8203125,2.275390625t-0.44921875,2.744140625t-0.17578125,2.109375z M196.7962890625,82.88671875q0-0.48828125,0.05859375-0.986328125t0.05859375-0.986328125l0-0.3125q0-0.60546875,0.498046875-0.76171875t1.025390625-0.15625q0.60546875,0,1.162109375,0.25390625t0.556640625,0.9765625q0.1171875,0.3515625,0.1171875,0.83984375l0,0.91796875q0,0.68359375-0.478515625,0.947265625t-1.279296875,0.263671875q-0.56640625,0-1.142578125-0.205078125t-0.576171875-0.791015625z M204.71953125,76.24609375q0-1.796875,0.419921875-3.525390625t0.712890625-3.447265625q0.078125-0.44921875,0.615234375-0.556640625t0.908203125-0.107421875q0.64453125,0,1.03515625,0.1953125q0.15625,0.078125,0.29296875,0.17578125t0.13671875,0.25390625q0,1.6796875-0.400390625,3.28125t-0.400390625,3.3984375q0,0.60546875,0.087890625,1.142578125t0.166015625,1.064453125l0.1171875,0.56640625q0,0.15625,0.01953125,0.2734375t0.05859375,0.2734375q0,0.3515625-0.498046875,0.478515625t-0.869140625,0.126953125q-0.56640625,0-1.044921875-0.224609375t-0.751953125-0.771484375l-0.2734375-0.56640625q-0.234375-0.44921875-0.234375-1.005859375t-0.09765625-1.025390625z M205.96953125,64.48828125l0-0.37109375q0-0.91796875,0.458984375-1.640625t1.376953125-0.72265625q0.1171875,0,0.224609375,0.01953125t0.224609375,0.01953125q0.234375,0.0390625,0.615234375,0.185546875t0.380859375,0.458984375l0,0.0390625q-0.078125,0.15625-0.09765625,0.322265625t-0.09765625,0.283203125l0.0390625-0.0390625q-0.234375,0.60546875-0.380859375,0.9765625t-0.322265625,0.595703125t-0.439453125,0.322265625t-0.751953125,0.09765625q-0.078125,0-0.2734375-0.01953125t-0.419921875-0.078125t-0.380859375-0.15625t-0.15625-0.29296875z M213.2677734375,76.8125l0-0.56640625q0-0.703125,0.0390625-1.328125q0.0390625-0.87890625,0.0390625-1.4453125q0-0.3125,0.0390625-0.712890625t0.1953125-0.634765625q0.1953125-0.1953125,0.458984375-0.400390625t0.576171875-0.205078125q0.99609375,0,1.5625,0.224609375t0.60546875,0.927734375l0.078125,0.60546875q0.3515625-0.83984375,0.9375-2.080078125t1.357421875-2.36328125t1.73828125-1.9140625t2.041015625-0.791015625q0.99609375,0,1.640625,0.9375t1.025390625,2.392578125t0.537109375,3.2421875t0.21484375,3.505859375t0.078125,3.134765625t0.13671875,2.138671875q0.078125,0.60546875,0.263671875,1.279296875t0.185546875,1.240234375q0,0.15625-0.224609375,0.302734375t-0.478515625,0.244140625t-0.517578125,0.15625t-0.380859375,0.05859375q-0.76171875,0-1.083984375-1.142578125t-0.400390625-2.861328125t-0.078125-3.720703125t-0.13671875-3.720703125t-0.556640625-2.861328125t-1.337890625-1.181640625q-0.83984375,0-1.73828125,1.083984375t-1.54296875,2.880859375q-0.625,1.796875-0.859375,4.08203125q-0.078125,0.72265625-0.078125,1.4453125q0,1.58203125,0.33203125,3.1640625q0.0390625,0.2734375-0.224609375,0.41015625t-0.654296875,0.21484375t-0.791015625,0.09765625t-0.615234375,0.01953125q-0.76171875,0-1.220703125-0.537109375t-0.712890625-1.376953125t-0.341796875-1.884765625t-0.107421875-2.060546875z M231.015234375,68.55078125q0-0.1953125,0.302734375-0.33203125t0.72265625-0.1953125t0.80078125-0.09765625t0.576171875-0.0390625q0.078125-0.52734375,0.224609375-1.42578125t0.361328125-1.923828125t0.537109375-2.060546875t0.78125-1.875t1.083984375-1.376953125t1.46484375-0.537109375l-0.0390625,0q0.2734375-0.0390625,0.537109375-0.05859375t0.537109375-0.01953125q0.64453125,0,1.396484375,0.25390625t1.396484375,0.712890625t1.083984375,1.103515625t0.439453125,1.3671875q0,0.56640625-0.283203125,1.220703125t-0.986328125,0.654296875q-0.234375,0-0.478515625-0.1171875t-0.458984375-0.25390625q0.078125-0.44921875,0.078125-0.8984375q0-0.234375-0.01953125-0.44921875q-0.05859375-0.68359375-0.29296875-1.201171875t-0.673828125-0.8203125t-1.044921875-0.224609375q-0.80078125,0.1171875-1.201171875,0.9765625t-0.556640625,2.041015625t-0.1953125,2.40234375t-0.15625,1.982421875q0.91796875,0.078125,1.552734375,0.078125l1.591796875,0q0.15625,0,0.537109375,0.01953125t0.7421875,0.078125t0.64453125,0.205078125t0.283203125,0.380859375q0,0.1953125-0.15625,0.341796875t-0.380859375,0.205078125t-0.46875,0.078125t-0.400390625,0.01953125q-0.68359375,0-1.162109375-0.05859375t-0.91796875-0.107421875t-0.91796875-0.048828125t-1.123046875,0.13671875q-0.1953125,2.16796875-0.3125,4.296875t-0.1171875,4.296875q0,3.3984375,0.21484375,6.66015625t0.78125,6.62109375q0.078125,0.3125,0.13671875,0.712890625t0.05859375,0.771484375q0,0.3515625-0.21484375,0.576171875t-0.537109375,0.322265625t-0.6640625,0.13671875t-0.615234375,0.0390625q-1.11328125,0-1.5625-0.341796875t-0.64453125-1.376953125q-0.48828125-2.75390625-0.625-5.556640625t-0.13671875-5.654296875q0-2.79296875,0.205078125-5.576171875t0.517578125-5.537109375q-0.15625,0-0.537109375,0.01953125t-0.76171875,0t-0.6640625-0.13671875t-0.283203125-0.41015625z M245.0322265625,77.0859375q0-1.11328125,0.283203125-2.294921875t0.8984375-2.12890625t1.552734375-1.54296875t2.265625-0.595703125q0.99609375,0,2.099609375,0.341796875t2.021484375,0.9765625t1.494140625,1.552734375t0.576171875,2.05078125q0,1.3671875-0.498046875,2.59765625t-1.396484375,2.197265625t-2.099609375,1.5234375t-2.607421875,0.556640625q-1.15234375,0-2.01171875-0.419921875t-1.435546875-1.123046875t-0.859375-1.66015625t-0.283203125-2.03125z M247.9033203125,77.046875q0,0.3515625,0.107421875,1.03515625t0.322265625,1.337890625t0.556640625,1.1328125t0.830078125,0.439453125q1.03515625-0.1171875,1.708984375-0.673828125t1.09375-1.357421875t0.5859375-1.73828125t0.166015625-1.77734375q0-1.07421875-0.419921875-1.796875t-1.376953125-1.171875q0,0.0390625,0.0390625,0.0390625t0.0390625-0.0390625l-0.48828125-0.1171875q-0.1953125-0.078125-0.478515625-0.17578125t-0.556640625-0.4296875q-0.76171875,0.2734375-1.181640625,0.703125t-0.634765625,1.044921875t-0.263671875,1.474609375t-0.048828125,2.0703125z"/><path fill="#" d=""/></svg>
